# File created by Blade
# Date/Time:  Tue Jan 27 18:05:41 2015
# Frame Rate: 120.000 fps
#------------------------------------------------------
:FULLY-SPECIFIED
:DEGREES
4091
root -0.800254 31.946200 -6.680998 5.135658 -23.129309 0.152891
Spine -2.665953 -22.421153 -3.746665
Head 30.413316 41.332150 23.625675
LeftShoulder -13.563930 16.865230 11.130443
LeftArm 24.608161 38.751639 -68.451071
LeftForeArm 0.404158 0.000000 19.817830
LeftHand -11.364970 -0.000000 -3.984264
LeftHandThumb1 -26.253704 0.000000 33.147579
RightShoulder -17.166348 6.809202 -40.199207
RightArm -3.241432 61.064437 28.536088
RightForeArm 27.827532 -0.000000 16.337990
RightHand -17.865372 -0.000000 -7.814065
RightHandThumb1 -24.326973 -0.000000 -32.862282
LeftUpLeg 2.367269 17.293644 -1.853451
LeftLeg 0.030776 -0.000000 -0.000000
LeftFoot -25.334704 26.766920 -28.707636
LeftToeBase 9.003791 -0.000000 -0.000000
RightUpLeg -8.622199 11.502316 -3.976332
RightLeg 7.394844 -0.000000 -0.000000
RightFoot -12.483564 -1.297809 6.607984
RightToeBase 2.529417 -0.000000 -0.000000
4092
root -0.803297 31.945903 -6.677659 5.103438 -23.104952 0.154038
Spine -2.668926 -22.402313 -3.706549
Head 30.479397 41.182073 23.673058
LeftShoulder -13.557690 16.953750 11.090590
LeftArm 24.690388 38.655102 -68.407305
LeftForeArm 0.451950 -0.000000 19.789172
LeftHand -11.453109 -0.000000 -3.888019
LeftHandThumb1 -26.253704 0.000000 33.147579
RightShoulder -17.136882 6.883360 -40.190184
RightArm -3.563064 61.603881 28.253104
RightForeArm 27.857244 -0.000000 17.542330
RightHand -17.341262 -0.000000 -7.413884
RightHandThumb1 -24.326973 -0.000000 -32.862282
LeftUpLeg 2.385918 17.273459 -1.838561
LeftLeg 0.076006 -0.000000 -0.000000
LeftFoot -25.364448 26.740567 -28.738273
LeftToeBase 9.025686 -0.000000 -0.000000
RightUpLeg -8.593530 11.498381 -3.965917
RightLeg 7.428071 -0.000000 -0.000000
RightFoot -12.505573 -1.305563 6.608094
RightToeBase 2.534773 -0.000000 -0.000000
4093
root -0.805687 31.946148 -6.674325 5.070718 -23.080119 0.161040
Spine -2.674803 -22.391429 -3.665605
Head 30.584619 41.055185 23.745460
LeftShoulder -13.560586 16.980203 11.054923
LeftArm 24.724832 38.619150 -68.374915
LeftForeArm 0.404108 -0.000000 19.747955
LeftHand -11.323195 -0.000000 -4.055830
LeftHandThumb1 -26.253704 0.000000 33.147579
RightShoulder -17.131741 6.848686 -40.194561
RightArm -3.671120 62.094658 28.201398
RightForeArm 27.777436 -0.000000 18.811485
RightHand -17.072757 -0.000000 -7.277605
RightHandThumb1 -24.326973 -0.000000 -32.862282
LeftUpLeg 2.404696 17.236214 -1.829155
LeftLeg 0.115704 -0.000000 -0.000000
LeftFoot -25.401971 26.729219 -28.780581
LeftToeBase 9.043163 -0.000000 -0.000000
RightUpLeg -8.566890 11.475799 -3.959027
RightLeg 7.461236 -0.000000 -0.000000
RightFoot -12.524024 -1.317665 6.608944
RightToeBase 2.710072 -0.000000 -0.000000
4094
root -0.808964 31.945399 -6.672121 5.045375 -23.058921 0.152967
Spine -2.660932 -22.367724 -3.603774
Head 30.613205 40.957548 23.723729
LeftShoulder -13.557356 16.918349 11.019290
LeftArm 24.635140 38.592490 -68.393374
LeftForeArm 0.344504 -0.000000 19.767449
LeftHand -11.296373 0.000000 -4.082636
LeftHandThumb1 -26.253704 0.000000 33.147579
RightShoulder -17.161811 6.889633 -40.208381
RightArm -3.870193 62.569496 28.029858
RightForeArm 27.742204 -0.000000 20.094622
RightHand -16.515971 -0.000000 -7.075023
RightHandThumb1 -24.326973 -0.000000 -32.862282
LeftUpLeg 2.420062 17.224000 -1.811458
LeftLeg 0.155604 -0.000000 -0.000000
LeftFoot -25.465622 26.709061 -28.839264
LeftToeBase 9.106864 -0.000000 -0.000000
RightUpLeg -8.544016 11.484144 -3.941847
RightLeg 7.495097 -0.000000 -0.000000
RightFoot -12.555331 -1.328004 6.617519
RightToeBase 2.579176 -0.000000 -0.000000
4095
root -0.811947 31.945631 -6.668708 5.007093 -23.023172 0.161221
Spine -2.676944 -22.381494 -3.566395
Head 30.767046 40.811239 23.793787
LeftShoulder -13.538220 16.973198 10.996216
LeftArm 24.608365 38.479996 -68.435415
LeftForeArm 0.389925 -0.000000 19.759090
LeftHand -11.220358 -0.000000 -4.117969
LeftHandThumb1 -26.253704 0.000000 33.147579
RightShoulder -17.095652 6.868328 -40.184088
RightArm -4.061548 63.228732 27.883981
RightForeArm 27.743948 -0.000000 21.461695
RightHand -15.913051 -0.000000 -6.717778
RightHandThumb1 -24.326973 -0.000000 -32.862282
LeftUpLeg 2.450592 17.155437 -1.802461
LeftLeg 0.178116 -0.000000 -0.000000
LeftFoot -25.491903 26.729004 -28.878952
LeftToeBase 9.078586 -0.000000 -0.000000
RightUpLeg -8.503346 11.459429 -3.933386
RightLeg 7.515120 -0.000000 -0.000000
RightFoot -12.575376 -1.339387 6.615163
RightToeBase 2.548664 -0.000000 -0.000000
4096
root -0.815307 31.945740 -6.667002 4.981583 -22.995711 0.164453
Spine -2.688072 -22.374660 -3.524253
Head 30.849924 40.666381 23.828558
LeftShoulder -13.516702 17.037995 10.980796
LeftArm 24.616700 38.385844 -68.461224
LeftForeArm 0.398664 -0.000000 19.744319
LeftHand -11.160469 -0.000000 -4.123527
LeftHandThumb1 -26.253704 0.000000 33.147579
RightShoulder -17.075678 6.865806 -40.184935
RightArm -4.276138 63.876892 27.734855
RightForeArm 27.715068 -0.000000 22.900895
RightHand -15.605123 -0.000000 -5.830727
RightHandThumb1 -24.326973 -0.000000 -32.862282
LeftUpLeg 2.471981 17.093479 -1.785012
LeftLeg 0.197275 -0.000000 -0.000000
LeftFoot -25.471817 26.753250 -28.834674
LeftToeBase 9.037798 -0.000000 -0.000000
RightUpLeg -8.481845 11.454246 -3.924822
RightLeg 7.544336 -0.000000 -0.000000
RightFoot -12.599057 -1.360156 6.593777
RightToeBase 2.551257 -0.000000 -0.000000
4097
root -0.817703 31.945896 -6.664634 4.949772 -22.948949 0.166890
Spine -2.691737 -22.382971 -3.471651
Head 30.954596 40.583254 23.884836
LeftShoulder -13.591479 17.041132 10.934053
LeftArm 24.718311 38.466415 -68.367047
LeftForeArm 0.300127 0.000000 19.691676
LeftHand -11.121808 -0.000000 -4.153291
LeftHandThumb1 -26.253704 0.000000 33.147579
RightShoulder -17.054633 6.886618 -40.179513
RightArm -4.471549 64.492400 27.592690
RightForeArm 27.723571 -0.000000 24.457407
RightHand -15.440258 -0.000000 -5.453142
RightHandThumb1 -24.326973 -0.000000 -32.862282
LeftUpLeg 2.498857 17.018712 -1.778631
LeftLeg 0.210557 -0.000000 -0.000000
LeftFoot -25.538625 26.769223 -28.920698
LeftToeBase 9.093184 -0.000000 -0.000000
RightUpLeg -8.445707 11.419161 -3.911970
RightLeg 7.565939 -0.000000 -0.000000
RightFoot -12.618110 -1.364631 6.615042
RightToeBase 2.521303 -0.000000 -0.000000
4098
root -0.821042 31.945988 -6.662959 4.923936 -22.910572 0.174021
Spine -2.704074 -22.381911 -3.427881
Head 31.055044 40.511847 23.925932
LeftShoulder -13.622693 17.085495 10.902218
LeftArm 24.781234 38.456681 -68.334952
LeftForeArm 0.305712 -0.000000 19.675814
LeftHand -11.121004 -0.000000 -4.202262
LeftHandThumb1 -26.253704 0.000000 33.147579
RightShoulder -17.045818 6.877671 -40.180622
RightArm -4.634651 65.087275 27.483080
RightForeArm 27.857117 -0.000000 26.020411
RightHand -14.865573 -0.000000 -5.028243
RightHandThumb1 -24.326973 -0.000000 -32.862282
LeftUpLeg 2.521519 16.978194 -1.769798
LeftLeg 0.216755 -0.000000 -0.000000
LeftFoot -25.551881 26.759975 -28.960268
LeftToeBase 9.092376 -0.000000 -0.000000
RightUpLeg -8.418059 11.413303 -3.907542
RightLeg 7.583500 -0.000000 -0.000000
RightFoot -12.649003 -1.388521 6.608835
RightToeBase 2.573147 -0.000000 -0.000000
4099
root -0.826053 31.945954 -6.660882 4.889151 -22.857006 0.171834
Spine -2.694520 -22.374368 -3.382819
Head 31.110543 40.412081 23.945888
LeftShoulder -13.620735 17.067529 10.889876
LeftArm 24.776563 38.504717 -68.321247
LeftForeArm 0.244600 -0.000000 19.676729
LeftHand -11.294028 -0.000000 -3.934205
LeftHandThumb1 -26.253704 0.000000 33.147579
RightShoulder -17.036759 6.901521 -40.191996
RightArm -4.968277 65.493882 27.164167
RightForeArm 27.970002 -0.000000 27.565390
RightHand -14.243165 -0.000000 -4.425992
RightHandThumb1 -24.326973 -0.000000 -32.862282
LeftUpLeg 2.564284 16.916956 -1.737868
LeftLeg 0.217776 -0.000000 -0.000000
LeftFoot -25.474432 26.775963 -28.839244
LeftToeBase 9.029075 -0.000000 -0.000000
RightUpLeg -8.368815 11.393009 -3.889249
RightLeg 7.589017 -0.000000 -0.000000
RightFoot -12.651035 -1.390535 6.653026
RightToeBase 2.562326 -0.000000 -0.000000
